<?xml version="1.0" standalone="no"?>
<!DOCTYPE svg PUBLIC "-//W3C//DTD SVG 20010904//EN"
 "http://www.w3.org/TR/2001/REC-SVG-20010904/DTD/svg10.dtd">
<svg version="1.0" xmlns="http://www.w3.org/2000/svg"
 width="349.000000pt" height="180.000000pt" viewBox="0 0 349.000000 180.000000"
 preserveAspectRatio="xMidYMid meet">

<g transform="translate(0.000000,180.000000) scale(0.100000,-0.100000)"
fill="#000000" stroke="none">
<path d="M1765 1456 c-48 -25 -48 -25 -73 -5 -32 25 -112 26 -154 2 -35 -21
-68 -80 -68 -122 0 -28 -2 -29 -42 -29 -55 0 -87 -13 -118 -47 -22 -24 -25
-35 -25 -103 1 -59 6 -87 23 -119 24 -45 65 -83 92 -83 15 0 15 -5 -7 -47 -60
-118 32 -233 175 -219 31 3 62 5 67 5 6 0 62 -3 125 -5 168 -8 186 -6 229 15
82 42 108 113 69 190 l-23 47 30 20 c42 27 72 77 85 141 22 106 -25 182 -120
191 -50 5 -50 5 -50 41 0 56 -29 103 -80 129 -56 28 -75 28 -135 -2z m120 -71
c31 -30 33 -91 6 -151 -21 -47 -58 -62 -104 -45 -48 19 -58 64 -31 144 26 77
82 100 129 52z m-216 -6 c29 -32 46 -121 29 -156 -24 -51 -102 -56 -134 -9
-24 38 -30 130 -10 161 22 33 85 35 115 4z m-210 -155 c52 -36 79 -155 44
-187 -70 -62 -153 1 -153 117 0 36 5 48 26 65 32 25 52 26 83 5z m585 -8 c25
-10 36 -23 41 -44 9 -44 -12 -111 -46 -145 -25 -24 -35 -28 -62 -23 -46 9 -70
42 -64 88 7 52 39 110 68 125 30 16 23 16 63 -1z m-223 -137 c11 -6 29 -30 39
-54 11 -25 47 -71 84 -108 71 -68 78 -89 46 -130 -37 -47 -129 -59 -160 -22
-11 13 -15 13 -33 0 -27 -19 -117 -20 -142 -1 -16 12 -22 12 -42 -1 -37 -25
-121 -12 -150 21 -39 45 -31 70 43 139 36 34 77 83 90 109 13 25 32 49 41 51
36 9 165 7 184 -4z"/>
<path d="M1672 912 c-17 -49 -32 -92 -32 -96 0 -3 9 -6 19 -6 12 0 21 9 25 25
5 21 12 25 41 25 28 0 38 -5 47 -25 6 -14 19 -25 30 -25 10 0 18 1 18 3 0 1
-15 43 -33 92 -28 78 -36 90 -57 93 -24 3 -28 -4 -58 -86z m78 -14 c0 -13 -8
-18 -25 -18 -29 0 -29 0 -13 53 l12 40 13 -29 c6 -16 12 -37 13 -46z"/>
<path d="M1800 620 c0 -13 7 -20 20 -20 13 0 20 7 20 20 0 13 -7 20 -20 20
-13 0 -20 -7 -20 -20z"/>
<path d="M1120 533 c-19 -53 -36 -101 -38 -105 -2 -4 7 -8 21 -8 18 0 27 7 31
25 5 21 12 25 46 25 34 0 42 -4 50 -25 6 -15 17 -25 30 -25 25 0 25 3 -5 86
-47 127 -45 124 -74 124 -25 0 -29 -7 -61 -97z m89 -20 c1 -8 -11 -13 -30 -13
-33 0 -33 3 -7 70 l10 25 13 -35 c8 -19 14 -41 14 -47z"/>
<path d="M1320 500 c0 -65 2 -71 25 -82 19 -9 29 -8 50 6 14 9 25 12 25 6 0
-5 9 -10 20 -10 18 0 20 7 20 75 0 68 -2 75 -20 75 -18 0 -20 -7 -20 -54 0
-57 -15 -81 -44 -70 -12 5 -16 20 -16 65 0 52 -2 59 -20 59 -18 0 -20 -7 -20
-70z"/>
<path d="M1510 495 c0 -68 2 -75 20 -75 17 0 20 7 20 49 0 51 18 78 45 67 11
-4 15 -21 15 -61 0 -48 2 -55 20 -55 17 0 20 7 20 49 0 51 18 78 45 67 11 -4
15 -21 15 -61 0 -49 2 -55 20 -55 19 0 21 5 18 66 -4 80 -18 96 -70 76 -21 -8
-36 -8 -42 -2 -14 14 -49 12 -65 -2 -11 -10 -14 -10 -18 0 -3 6 -13 12 -24 12
-17 0 -19 -8 -19 -75z"/>
<path d="M1800 495 c0 -68 2 -75 20 -75 18 0 20 7 20 75 0 68 -2 75 -20 75
-18 0 -20 -7 -20 -75z"/>
<path d="M1901 544 c-29 -36 -27 -79 5 -110 24 -25 35 -26 77 -9 24 10 22 -10
-4 -36 -16 -16 -29 -20 -50 -15 -21 4 -29 2 -29 -8 0 -36 89 -28 120 11 16 21
20 41 20 109 0 77 -2 84 -20 84 -11 0 -20 -5 -20 -10 0 -7 -6 -7 -19 0 -32 17
-58 12 -80 -16z m92 -25 c13 -20 2 -65 -18 -73 -38 -14 -67 32 -45 74 13 24
47 24 63 -1z"/>
<path d="M2115 558 c-29 -16 -35 -28 -35 -69 0 -48 29 -74 82 -74 49 0 78 30
78 80 0 58 -71 94 -125 63z m78 -39 c13 -21 2 -65 -19 -73 -41 -16 -74 50 -42
82 16 16 48 11 61 -9z"/>
<path d="M2288 559 c-10 -5 -18 -21 -18 -35 0 -19 8 -28 35 -40 19 -8 35 -21
35 -30 0 -13 -8 -15 -35 -12 -23 3 -35 0 -35 -8 0 -20 37 -27 75 -14 29 10 35
16 35 41 0 23 -6 31 -35 43 -43 18 -45 36 -5 36 20 0 30 5 30 15 0 18 -55 20
-82 4z"/>
</g>
</svg>
